<svg width="16" height="15" viewBox="0 0 16 15" fill="none" xmlns="http://www.w3.org/2000/svg">
<path fill-rule="evenodd" clip-rule="evenodd" d="M0.630884 6.6779C0.630884 3.03937 4.03097 0.25 8.0119 0.25C11.9928 0.25 15.3929 3.03937 15.3929 6.6779C15.3929 10.3164 11.9928 13.1058 8.0119 13.1058C7.12917 13.1058 6.28067 12.9709 5.49319 12.7223C4.56436 13.5892 3.21481 14.0059 1.56394 14.0707C0.891442 14.0971 0.40605 13.3977 0.687638 12.7716C1.08711 11.8771 1.60326 10.8517 1.66447 9.95729C1.01079 9.00542 0.630884 7.88205 0.630884 6.6779ZM8.0119 1.53571C4.55007 1.53571 1.9166 3.92644 1.9166 6.6779C1.9166 7.66594 2.24744 8.59288 2.83065 9.37829C2.91295 9.48912 2.95738 9.6235 2.95738 9.76155C2.95738 10.8118 2.53871 11.8028 2.1124 12.7432C3.43415 12.6028 4.30127 12.1796 4.82413 11.5643C4.99974 11.3576 5.28614 11.2834 5.54002 11.3788C6.29358 11.6618 7.1295 11.8201 8.0119 11.8201C11.4737 11.8201 14.1072 9.42935 14.1072 6.6779C14.1072 3.92644 11.4737 1.53571 8.0119 1.53571Z" fill="white"/>
</svg>
